<svg width="32" height="32" viewBox="0 0 32 32" fill="none" xmlns="http://www.w3.org/2000/svg">
<g clip-path="url(#clip0_293_2344)">
<path d="M4 2.33333C3.07953 2.33333 2.33333 3.07953 2.33333 4C2.33333 4.92047 3.07953 5.66667 4 5.66667V2.33333ZM6.66667 4L8.32842 3.87217C8.26163 3.00384 7.53756 2.33333 6.66667 2.33333V4ZM28 8L29.6565 8.18405C29.7088 7.71288 29.5581 7.24171 29.2419 6.88846C28.9257 6.53522 28.4741 6.33333 28 6.33333V8ZM6.97436 8L5.3126 8.12783L6.97436 8ZM24.4515 20.1582L24.5703 21.8207L24.4515 20.1582ZM10.6454 21.1444L10.7641 22.8068L10.6454 21.1444ZM4 5.66667H6.66667V2.33333H4V5.66667ZM10.7641 22.8068L24.5703 21.8207L24.3328 18.4958L10.5266 19.4819L10.7641 22.8068ZM28.5684 17.9769L29.6565 8.18405L26.3435 7.81595L25.2554 17.6088L28.5684 17.9769ZM5.00491 4.12783L5.3126 8.12783L8.63612 7.87217L8.32842 3.87217L5.00491 4.12783ZM5.3126 8.12783L6.13483 18.8168L9.45835 18.5612L8.63612 7.87217L5.3126 8.12783ZM28 6.33333H6.97436V9.66667H28V6.33333ZM24.5703 21.8207C26.6558 21.6717 28.3375 20.0549 28.5684 17.9769L25.2554 17.6088C25.2022 18.0883 24.8141 18.4614 24.3328 18.4958L24.5703 21.8207ZM10.5266 19.4819C9.9779 19.5211 9.50054 19.1097 9.45835 18.5612L6.13483 18.8168C6.31768 21.1938 8.3862 22.9767 10.7641 22.8068L10.5266 19.4819Z" fill="#1E1E1E"/>
<rect x="11.3333" y="27.3334" width="0.0133333" height="0.0133333" stroke="#1E1E1E" stroke-width="5" stroke-linejoin="round"/>
<rect x="23.3333" y="27.3334" width="0.0133333" height="0.0133333" stroke="#1E1E1E" stroke-width="5" stroke-linejoin="round"/>
</g>
<defs>
<clipPath id="clip0_293_2344">
<rect width="32" height="32" fill="white"/>
</clipPath>
</defs>
</svg>
